<?xml version="1.0" encoding="UTF-8" standalone="no"?>
<!DOCTYPE svg PUBLIC "-//W3C//DTD SVG 1.1//EN" "http://www.w3.org/Graphics/SVG/1.1/DTD/svg11.dtd">
<svg width="100%" height="100%" viewBox="0 0 24 24" version="1.1" xmlns="http://www.w3.org/2000/svg" xmlns:xlink="http://www.w3.org/1999/xlink" xml:space="preserve" xmlns:serif="http://www.serif.com/" style="fill-rule:evenodd;clip-rule:evenodd;stroke-linejoin:round;stroke-miterlimit:2;">
    <g id="Artboard2" transform="matrix(0.06874,0,0,0.068748,-27.437012,0)">
        <rect x="399.14" y="0" width="349.14" height="349.1" style="fill:none;"/>
        <g transform="matrix(1.384525,0,0,1.384365,419.678982,103.036845)">
            <path d="M168.578,18.832L170.5,18.498C172.251,18.361 173.859,17.51 180.535,18.034C185.671,18.746 185.604,18.758 190.613,20.204C191.882,20.692 193.151,21.181 194.42,21.67L198.332,23.795L199.491,24.514C202.876,27.053 202.968,26.851 206.007,29.851C208.434,32.277 210.243,34.974 210.565,35.453C210.866,35.939 212.399,38.416 214.085,41.67C215.455,45.601 215.493,45.491 216.538,49.491L217.196,52.531C217.662,59.535 218.597,65.443 212.226,77.322C208.955,82.883 208.664,82.6 204.247,87.222C199.995,90.557 200.104,90.538 195.397,93.294C188.044,96.622 183.502,97.16 183.455,97.171L181.483,97.328C176.995,97.544 177.075,97.499 172.524,97.278C170.543,96.91 168.562,96.543 166.581,96.175C160.889,94.128 160.931,94.191 155.67,91.26C153.919,90.152 153.924,90.167 153.778,90.063C152.632,89.248 152.77,89.169 151.613,88.347C150.914,87.727 150.214,87.107 149.515,86.487C148.805,84.87 148.257,84.888 148.935,83.708C152.276,77.896 152.277,77.957 154.736,71.771L156.382,72.63C163.741,82.265 171.842,82.43 174.462,82.897C178.92,83.14 179.579,83.171 184.409,82.203C190.188,79.919 190.21,79.994 195.135,76.113C196.766,74.21 196.744,74.331 198.266,72.339C202.095,66.86 201.622,65.691 202.543,62.51C203.23,54.487 202.678,53.546 201.301,48.586C199.352,44.248 199.158,44.409 196.303,40.677C193.656,38.171 193.796,38.15 190.703,36.118C186.852,33.896 186.863,33.902 181.464,32.7C177.931,32.54 178.035,32.539 174.503,32.521C170.896,33.164 170.926,33.068 167.449,34.346C165.354,35.262 165.429,35.224 163.365,36.301C158.832,39.846 158.74,39.673 155.342,44.397C154.679,45.748 154.017,47.099 153.354,48.45C152.571,50.44 152.656,50.354 152.15,52.435C150.116,63.127 153.226,68.04 143.081,82.125C142.152,83.184 141.224,84.243 140.296,85.303C136.867,88.385 136.974,88.432 133.284,91.127C127.968,93.977 127.995,93.875 122.42,96.165C120.436,96.521 118.451,96.876 116.467,97.232C109.384,97.509 109.447,97.497 102.482,96.577C100.842,96.15 99.202,95.722 97.563,95.294C93.415,93.497 93.516,93.532 89.628,91.32C87.867,90.246 87.87,90.265 87.726,90.161C86.55,89.315 86.732,89.211 85.585,88.386C84.097,87.114 84.098,87.132 83.978,87.012C83.191,86.221 83.397,86.178 82.662,85.439C82.88,83.844 82.828,83.837 82.898,83.716C85.833,78.592 85.935,78.72 88.252,73.354L88.797,71.851C90.87,72.875 90.66,73.083 92.193,74.761C93.383,75.883 94.574,77.005 95.765,78.127C100.046,80.647 100.132,81.658 107.459,82.831C112.976,82.993 112.947,83.191 118.412,82.212C119.496,81.781 120.581,81.349 121.665,80.917C125.008,79.146 124.967,79.248 128.099,77.05C130.623,74.505 130.482,74.467 132.749,71.685C134.778,68.164 134.624,68.152 136.117,64.399C136.629,60.943 136.698,61.006 136.884,57.51L136.874,55.521L137.48,51.496C137.984,48.984 137.906,49.068 138.59,46.522L139.98,42.718C144.404,32.058 152,26.719 152.896,25.979C157.705,23.252 157.504,22.989 162.569,20.67C163.873,20.257 165.177,19.845 166.481,19.432L168.578,18.832Z" style="fill:rgb(234,233,231);fill-opacity:0.99;"/>
            <path d="M43.516,17.889C48.046,18.122 48.002,17.977 52.483,18.595C53.74,18.883 61.584,20.683 67.453,24.573C70.377,26.667 70.229,26.692 73.034,28.878C74.242,31.247 73.576,31.386 70.18,37.37C69.693,38.445 69.206,39.521 68.719,40.597C67.87,42.681 68.126,43.739 65.976,43.018C62.283,37.768 59.805,35.966 53.431,33.703L51.551,33.267C44.204,31.896 42.956,31.74 34.547,34.602C31.807,35.948 30.808,36.134 27.396,39.382C25.707,41.366 25.755,41.313 24.102,43.276C21.621,46.58 21.943,46.695 20.517,50.506C20.462,50.829 20.418,50.81 19.735,54.534C19.492,59.104 19.43,59.042 20.229,63.573L20.416,64.525C21.572,67.735 21.439,67.734 23.123,70.683C25.149,73.327 24.957,73.347 27.216,75.817C31.561,79.746 31.804,80.029 38.55,82.326C42.882,82.784 42.797,83.284 48.548,82.904C53.38,82.045 53.393,82.247 57.69,79.919C59.908,78.417 59.841,78.499 61.962,76.981C64.68,74.619 64.53,74.562 66.747,71.684C68.497,68.673 68.411,68.746 69.72,65.565C70.488,62.49 70.56,62.606 70.873,59.524L70.91,55.507C71,54.938 71.056,54.971 72.141,48.407C72.374,47.464 72.607,46.522 72.84,45.579C73.515,43.957 74.189,42.335 74.864,40.713C76.076,38.042 76.152,38.156 77.721,35.633C80.006,32.369 80.159,32.625 85.767,26.88C85.99,26.695 86.845,25.987 88.698,24.763C90.79,23.463 90.735,23.534 93.668,21.831C99.943,19.529 99.914,19.593 106.449,18.153C110.35,17.55 112.73,17.18 111.721,20.565C110.682,24.053 109.848,23.928 110.369,27.591C111.688,28.983 111.611,28.931 112.988,30.228L114.142,30.903C113.896,31.385 113.65,31.868 113.404,32.35C109.06,32.366 106.072,33.003 105.446,33.136C101.261,34.436 101.241,34.229 97.349,36.283C94.551,38.521 94.513,38.392 91.916,40.901C91.706,41.178 91.751,41.193 89.353,44.408C87.846,47.464 87.728,47.338 86.516,50.505L86.135,52.424C85.376,56.713 85.53,56.682 85.234,62.468C84.956,64.138 84.678,65.808 84.401,67.478C81.527,75.292 81.832,75.399 77.038,82.101C74.911,85.012 74.788,84.777 72.221,87.22L69.477,89.466C68.301,90.243 68.437,90.329 67.25,91.112C67.102,91.21 67.108,91.195 65.33,92.233C61.911,93.923 61.983,93.868 58.466,95.409C54.488,96.513 54.549,96.529 50.468,97.231C44.451,97.517 44.522,97.516 38.548,97.127C32.898,95.563 32.711,96.2 27.521,93.458C23.287,91.371 23.51,91.14 19.612,88.36C16.479,85.423 16.592,85.46 13.717,82.325C12.103,80.405 12.096,80.476 10.797,78.289C8.522,73.894 8.518,73.999 6.755,69.423C6.161,66.438 5.566,63.454 4.972,60.47C4.999,58.804 5.026,57.139 5.053,55.473C5.213,54.15 5.372,52.828 5.531,51.506L5.825,49.569L6.399,47.471L7.572,43.521C8.29,42.095 8.15,42.107 8.874,40.669C9.03,40.359 9.023,40.384 10.89,36.828C12.14,35.091 12.101,35.146 13.367,33.399C16.444,29.941 16.496,30.108 19.754,26.831C20.203,26.445 20.171,26.502 22.235,25.107C28.872,20.943 28.829,20.956 36.555,18.794C38.875,18.492 41.196,18.191 43.516,17.889Z" style="fill:rgb(234,233,231);fill-opacity:0.99;"/>
            <path d="M123.664,5.956L124.485,5.847C132.252,8.22 139.277,10.037 139.495,14.497C131.267,23.705 130.679,23.548 129.311,22.919C125.37,21.106 125.465,21.113 121.454,19.562C120.129,19.049 120.758,16.679 121.682,12.538C122.056,10.573 122.431,8.609 122.805,6.644L123.664,5.956Z" style="fill:rgb(234,233,230);fill-opacity:0.99;"/>
            <path d="M114.468,37.083C115.963,36.978 123.669,35.439 117.695,40.704C115.573,42.574 116.117,43.286 119.304,48.612C119.461,49.313 120.1,49.844 120.256,50.545C120.662,52.367 118.762,52.112 111.073,62.019C108.102,65.739 109.505,66.896 108.447,67.002C108.088,67.038 105.148,67.201 108.295,62.5C109.184,60.916 110.073,59.332 110.962,57.748C111.081,57.487 111.898,55.696 112.524,54.51C115.922,46.731 108.752,48.007 107.506,42.502C108.449,40.945 108.413,40.99 109.683,39.646C111.497,38.207 111.209,37.653 114.468,37.083Z" style="fill:rgb(233,231,226);fill-opacity:0.93;"/>
            <path d="M114.468,37.083C115.963,36.978 123.669,35.439 117.695,40.704C115.573,42.574 116.117,43.286 119.304,48.612C119.461,49.313 120.1,49.844 120.256,50.545C120.662,52.367 118.762,52.112 111.073,62.019C108.102,65.739 109.505,66.896 108.447,67.002C108.088,67.038 105.148,67.201 108.295,62.5L110.962,57.748C111.081,57.487 111.898,55.696 112.524,54.51C115.922,46.731 108.752,48.007 107.506,42.502C108.449,40.945 108.413,40.99 109.683,39.646C111.497,38.207 111.209,37.653 114.468,37.083Z" style="fill:rgb(233,231,226);"/>
            <path d="M137.46,27.567C140.327,30.223 140.116,30.815 138.101,34.18C136.795,36.361 136.964,36.34 135.66,38.572C133.867,42.985 133.145,44.075 131.655,42.37C127.541,37.661 126.383,37.575 127.728,34.716C129.719,32.621 129.67,32.673 131.779,30.789C134.269,28.279 133.928,27.133 137.46,27.567Z" style="fill:rgb(234,233,229);fill-opacity:0.99;"/>
        </g>
    </g>
</svg>
